<svg width="179" height="68" viewBox="0 0 179 68" fill="none" xmlns="http://www.w3.org/2000/svg">
<path d="M14.5244 8.31031C15.4642 8.6236 15.9342 9.25017 15.9342 10.2423V10.3467C15.9342 11.0255 15.6731 11.5476 15.0987 11.9654C14.7332 12.2264 14.3155 12.3831 13.9499 12.3831C13.7411 12.3831 13.5323 12.3309 13.3234 12.2787C12.8012 12.122 12.2269 12.0176 11.6525 12.0176C10.1383 12.0176 8.78069 12.5397 7.73639 13.6362C6.69209 14.7328 6.11767 16.0381 6.11767 17.5524C6.11767 19.0666 6.63987 20.372 7.73639 21.4685C8.83291 22.565 10.1383 23.0872 11.6525 23.0872C12.2269 23.0872 12.8012 22.9828 13.3234 22.8261C13.5323 22.7739 13.7411 22.7217 13.9499 22.7217C14.3677 22.7217 14.7332 22.8783 15.1509 23.1394C15.6731 23.5571 15.9864 24.0793 15.9864 24.7581C15.9864 25.7502 15.5164 26.3768 14.5766 26.69C13.6367 27.0033 12.6446 27.1078 11.6525 27.1078C8.98956 27.1078 6.7443 26.1679 4.86456 24.2882C2.98481 22.4084 2.04492 20.1109 2.04492 17.5002C2.04492 14.8372 2.98481 12.592 4.86456 10.7122C6.7443 8.83246 9.04177 7.89258 11.6525 7.89258C12.6446 7.89258 13.6367 8.04923 14.5244 8.31031Z" fill="white" stroke="white" stroke-width="0.25" stroke-miterlimit="10"/>
<path d="M27.5771 7.89258C28.1515 7.89258 28.6214 8.10145 29.0391 8.51917C29.4046 8.93689 29.6134 9.40682 29.6134 9.98119V10.0334C29.6134 10.6078 29.4046 11.0777 29.0391 11.4432C28.6214 11.8609 28.1515 12.0698 27.5771 12.0698H26.6372C25.6973 12.0698 24.9663 12.3831 24.2875 13.0097C23.6609 13.6362 23.3476 14.4195 23.3476 15.3593V25.228C23.3476 25.8024 23.1388 26.2723 22.721 26.6378C22.3033 27.0556 21.8334 27.2644 21.3113 27.2644H21.259C20.7368 27.2644 20.2147 27.0556 19.8492 26.6378C19.4315 26.2723 19.2227 25.8024 19.2227 25.228V15.3593C19.2227 13.323 19.9537 11.5999 21.3635 10.1378C22.8255 8.6758 24.5486 7.99701 26.585 7.99701H27.5771V7.89258Z" fill="white" stroke="white" stroke-width="0.25" stroke-miterlimit="10"/>
<path d="M35.9835 18.7006C35.9835 19.7971 36.349 20.737 37.1322 21.5202C37.9154 22.3035 38.8553 22.6689 39.9518 22.6689C41.0484 22.6689 41.9882 22.3035 42.7715 21.5202C43.5547 20.737 43.9202 19.7971 43.9202 18.7006V9.92845C43.9202 9.35408 44.1291 8.88414 44.5468 8.46642C44.9645 8.04869 45.4344 7.83984 46.0088 7.83984H46.061C46.6354 7.83984 47.1053 8.04869 47.4708 8.46642C47.8886 8.88414 48.0974 9.35408 48.0974 9.92845V25.9063C48.0974 28.0993 47.262 30.0313 45.5911 31.65C43.9724 33.2164 42.0927 33.9996 40.004 33.9996C38.3332 33.9996 36.8189 33.5819 35.4613 32.7465C34.1038 31.9633 33.1116 30.8667 32.4328 29.5091C32.2762 29.1959 32.224 28.8826 32.224 28.6215C32.224 28.3604 32.2762 28.0993 32.3806 27.8383C32.5895 27.2639 33.0072 26.8984 33.5293 26.6895L33.5816 26.6373C33.8427 26.5851 34.0515 26.5329 34.3126 26.5329C34.5737 26.5329 34.7825 26.5851 35.0436 26.6895C35.5135 26.8984 35.8268 27.2117 36.0879 27.6294C36.4534 28.3082 36.9755 28.8304 37.7066 29.2481C38.4376 29.6658 39.2208 29.8747 40.0562 29.8747C41.1005 29.8747 42.0404 29.5091 42.8237 28.7259C43.6069 27.9427 44.0247 27.0028 44.0247 25.9063V25.7496C43.137 26.4284 41.8316 26.7418 40.0562 26.7418C37.811 26.7418 35.9312 25.9585 34.3126 24.3921C32.7461 22.8256 31.9629 20.9459 31.9629 18.7006V9.92845C31.9629 9.35408 32.1718 8.88414 32.5895 8.46642C33.0072 8.04869 33.4771 7.83984 33.9993 7.83984H34.0515C34.5737 7.83984 35.0958 8.04869 35.4613 8.46642C35.8269 8.88414 36.0879 9.35408 36.0879 9.92845V18.7006H35.9835Z" fill="white" stroke="white" stroke-width="0.25" stroke-miterlimit="10"/>
<path d="M53.8938 34.0001C53.3716 34.0001 52.8495 33.7913 52.484 33.3735C52.1185 32.9558 51.8574 32.4859 51.8574 31.9638V17.4479C51.8574 14.7849 52.7972 12.5397 54.677 10.6599C56.5567 8.78019 58.802 7.84033 61.465 7.84033C64.1279 7.84033 66.3732 8.78019 68.2529 10.6599C70.1327 12.5397 71.0726 14.8371 71.0726 17.4479C71.0726 20.1109 70.1327 22.3561 68.2529 24.2359C66.3732 26.1156 64.0757 27.0555 61.465 27.0555C59.0109 27.0555 57.1833 26.4811 55.9302 25.3846V31.9115C55.9302 32.4337 55.7213 32.9558 55.3036 33.3213C54.8859 33.6868 54.4681 34.0001 53.8938 34.0001ZM65.3811 21.364C66.4776 20.2675 66.9998 18.9621 66.9998 17.4479C66.9998 15.9337 66.4776 14.5761 65.3811 13.5318C64.3368 12.4875 63.0314 11.9131 61.465 11.9131C59.9507 11.9131 58.5931 12.4353 57.5488 13.5318C56.5045 14.6283 55.9302 15.9337 55.9302 17.4479C55.9302 18.9621 56.4523 20.2675 57.5488 21.364C58.6453 22.4606 59.9507 22.9827 61.465 22.9827C63.0314 23.035 64.3368 22.4606 65.3811 21.364Z" fill="white" stroke="white" stroke-width="0.25" stroke-miterlimit="10"/>
<path d="M76.4505 1C76.9726 1 77.4947 1.20886 77.8603 1.57437C78.278 1.99209 78.4869 2.46202 78.4869 3.03639V7.8924H80.9932C81.5153 7.8924 82.0375 8.10126 82.403 8.51898C82.7685 8.93671 83.0296 9.40664 83.0296 9.981V10.0332C83.0296 10.6076 82.8207 11.0775 82.403 11.443C81.9853 11.8607 81.5153 12.0696 80.9932 12.0696H78.4869V21.9905C78.4869 22.3038 78.5913 22.5649 78.8002 22.826C79.009 23.087 79.3223 23.1392 79.6356 23.1392H80.9932C81.5153 23.1392 82.0375 23.3481 82.403 23.7658C82.7685 24.1835 83.0296 24.6535 83.0296 25.2278V25.2801C83.0296 25.8544 82.8207 26.3244 82.403 26.6899C81.9853 27.1076 81.5153 27.3165 80.9932 27.3165H79.6356C78.1736 27.3165 76.9204 26.7943 75.9283 25.8022C74.884 24.7579 74.4141 23.5047 74.4141 22.0949V3.03639C74.4141 2.46202 74.6229 1.99209 75.0406 1.57437C75.4061 1.20886 75.8761 1 76.4505 1Z" fill="white" stroke="white" stroke-width="0.25" stroke-miterlimit="10"/>
<path d="M94.9357 7.89258C97.5987 7.89258 99.844 8.83246 101.724 10.7122C103.603 12.592 104.543 14.8894 104.543 17.5002C104.543 20.1632 103.603 22.4084 101.724 24.2882C99.844 26.1679 97.5465 27.1078 94.9357 27.1078C92.2728 27.1078 90.0275 26.1679 88.1478 24.2882C86.268 22.4084 85.3281 20.1109 85.3281 17.5002C85.3281 14.8372 86.268 12.592 88.1478 10.7122C90.0275 8.83246 92.2728 7.89258 94.9357 7.89258ZM94.9357 12.0176C93.4215 12.0176 92.0639 12.5397 91.0196 13.6362C89.9753 14.7328 89.4009 16.0381 89.4009 17.5524C89.4009 19.0666 89.9231 20.372 91.0196 21.4685C92.1161 22.565 93.4215 23.0872 94.9357 23.0872C96.45 23.0872 97.7554 22.565 98.8519 21.4685C99.9484 20.372 100.471 19.0666 100.471 17.5524C100.471 16.0381 99.9484 14.6806 98.8519 13.6362C97.7554 12.5397 96.45 12.0176 94.9357 12.0176Z" fill="white" stroke="white" stroke-width="0.25" stroke-miterlimit="10"/>
<path d="M17.4478 43.6078C19.3275 45.4876 20.2674 47.7851 20.2674 50.3958V58.0192C20.2674 58.5936 20.0585 59.0635 19.6408 59.429C19.2231 59.8468 18.7532 60.0556 18.231 60.0556H18.1788C17.6567 60.0556 17.1345 59.8468 16.769 59.429C16.3512 59.0635 16.1424 58.5936 16.1424 58.0192C14.8892 59.3768 13.0095 60.0556 10.6076 60.0556C7.94463 60.0556 5.69938 59.1157 3.81963 57.236C1.93989 55.3562 1 53.0588 1 50.448C1 47.785 1.93989 45.5398 3.81963 43.66C5.69938 41.7803 7.99685 40.8404 10.6076 40.8404C13.3228 40.7882 15.568 41.7281 17.4478 43.6078ZM6.74367 46.4797C5.69937 47.5762 5.12501 48.8816 5.12501 50.3958C5.12501 51.9101 5.64715 53.2677 6.74367 54.312C7.84019 55.3563 9.14557 55.9306 10.6598 55.9306C12.1741 55.9306 13.4794 55.4085 14.576 54.312C15.6725 53.2154 16.1946 51.9101 16.1946 50.3958C16.1946 48.8816 15.6725 47.5762 14.576 46.4797C13.4794 45.3832 12.1741 44.861 10.6598 44.861C9.14557 44.861 7.84019 45.4354 6.74367 46.4797Z" fill="white" stroke="white" stroke-width="0.25" stroke-miterlimit="10"/>
<path d="M36.1415 41.2058C37.0814 41.5191 37.5513 42.1457 37.5513 43.1378V43.2422C37.5513 43.921 37.2903 44.4431 36.7159 44.8609C36.3504 45.1219 35.9326 45.2786 35.5671 45.2786C35.3583 45.2786 35.1494 45.2264 34.9406 45.1742C34.4184 45.0175 33.844 44.9131 33.2697 44.9131C31.7554 44.9131 30.3978 45.4352 29.3535 46.5318C28.3092 47.6283 27.7349 48.9337 27.7349 50.4479C27.7349 51.9621 28.257 53.2675 29.3535 54.364C30.45 55.4606 31.7554 55.9827 33.2697 55.9827C33.844 55.9827 34.4184 55.8783 34.9406 55.7217C35.1494 55.6694 35.3583 55.6172 35.5671 55.6172C35.9849 55.6172 36.3504 55.7739 36.7681 56.0349C37.2903 56.4527 37.6035 56.9748 37.6035 57.6536C37.6035 58.6457 37.1336 59.2723 36.1938 59.5856C35.2539 59.8988 34.2617 60.0033 33.2697 60.0033C30.6067 60.0033 28.3614 59.0634 26.4817 57.1837C24.6019 55.3039 23.6621 53.0065 23.6621 50.3957C23.6621 47.7327 24.6019 45.4875 26.4817 43.6077C28.3614 41.728 30.6589 40.7881 33.2697 40.7881C34.2095 40.7881 35.2016 40.9447 36.1415 41.2058Z" fill="white" stroke="white" stroke-width="0.25" stroke-miterlimit="10"/>
<path d="M52.8505 41.2058C53.7903 41.5191 54.2603 42.1457 54.2603 43.1378V43.2422C54.2603 43.921 53.9993 44.4431 53.4249 44.8609C53.0594 45.1219 52.6416 45.2786 52.2761 45.2786C52.0673 45.2786 51.8584 45.2264 51.6496 45.1742C51.1274 45.0175 50.553 44.9131 49.9786 44.9131C48.4644 44.9131 47.1068 45.4352 46.0625 46.5318C45.0182 47.6283 44.4438 48.9337 44.4438 50.4479C44.4438 51.9621 44.966 53.2675 46.0625 54.364C47.159 55.4606 48.4644 55.9827 49.9786 55.9827C50.553 55.9827 51.1274 55.8783 51.6496 55.7217C51.8584 55.6694 52.0673 55.6172 52.2761 55.6172C52.6938 55.6172 53.0594 55.7739 53.4771 56.0349C53.9992 56.4527 54.3125 56.9748 54.3125 57.6536C54.3125 58.6457 53.8426 59.2723 52.9027 59.5856C51.9629 59.8988 50.9707 60.0033 49.9786 60.0033C47.3157 60.0033 45.0704 59.0634 43.1907 57.1837C41.3109 55.3039 40.3711 53.0065 40.3711 50.3957C40.3711 47.7327 41.3109 45.4875 43.1907 43.6077C45.0704 41.728 47.3679 40.7881 49.9786 40.7881C50.9707 40.7881 51.9106 40.9447 52.8505 41.2058Z" fill="white" stroke="white" stroke-width="0.25" stroke-miterlimit="10"/>
<path d="M66.6857 40.7881C69.3486 40.7881 71.5939 41.728 73.4736 43.6077C75.3534 45.4875 76.2933 47.7849 76.2933 50.3957C76.2933 53.0587 75.3534 55.3039 73.4736 57.1837C71.5939 59.0634 69.2964 60.0033 66.6857 60.0033C64.0227 60.0033 61.7774 59.0634 59.8977 57.1837C58.0179 55.3039 57.0781 53.0065 57.0781 50.3957C57.0781 47.7327 58.0179 45.4875 59.8977 43.6077C61.7774 41.728 64.0749 40.7881 66.6857 40.7881ZM66.6857 44.9131C65.1714 44.9131 63.8138 45.4352 62.7695 46.5318C61.7252 47.6283 61.1509 48.9337 61.1509 50.4479C61.1509 51.9621 61.673 53.2675 62.7695 54.364C63.866 55.4606 65.1714 55.9827 66.6857 55.9827C68.1999 55.9827 69.5053 55.4606 70.6018 54.364C71.6983 53.2675 72.2205 51.9621 72.2205 50.4479C72.2205 48.9337 71.6983 47.5761 70.6018 46.5318C69.5575 45.4352 68.2521 44.9131 66.6857 44.9131Z" fill="white" stroke="white" stroke-width="0.25" stroke-miterlimit="10"/>
<path d="M83.7081 51.9621C83.7081 53.0586 84.0736 53.9985 84.8568 54.7817C85.64 55.5649 86.5799 55.9304 87.6764 55.9304C88.773 55.9304 89.7129 55.5649 90.4961 54.7817C91.2793 53.9985 91.6448 53.0586 91.6448 51.9621V42.8244C91.6448 42.2501 91.8536 41.7802 92.2713 41.3624C92.6891 40.9447 93.159 40.7358 93.7334 40.7358H93.7856C94.36 40.7358 94.8299 40.9447 95.1954 41.3624C95.6132 41.7802 95.822 42.2501 95.822 42.8244V51.9621C95.822 54.1551 95.0388 56.0871 93.4723 57.6535C91.9059 59.22 89.9739 60.0032 87.7809 60.0032C85.5356 60.0032 83.6559 59.22 82.0372 57.6535C80.4185 56.0871 79.6875 54.1551 79.6875 51.9621V42.8244C79.6875 42.2501 79.8964 41.7802 80.3141 41.3624C80.7318 40.9447 81.2018 40.7358 81.7239 40.7358H81.7761C82.2983 40.7358 82.8204 40.9447 83.186 41.3624C83.5515 41.7802 83.8125 42.2501 83.8125 42.8244V51.9621H83.7081Z" fill="white" stroke="white" stroke-width="0.25" stroke-miterlimit="10"/>
<path d="M103.656 58.0191C103.656 58.5935 103.447 59.0634 103.03 59.4289C102.612 59.8466 102.142 60.0555 101.62 60.0555H101.568C101.046 60.0555 100.523 59.8466 100.158 59.4289C99.7401 59.0634 99.5312 58.5935 99.5312 58.0191V48.8814C99.5312 46.6362 100.314 44.7564 101.881 43.1378C103.447 41.5191 105.379 40.7881 107.625 40.7881C109.818 40.7881 111.75 41.5713 113.316 43.1378C114.883 44.7042 115.666 46.6362 115.666 48.8814V58.0191C115.666 58.5935 115.457 59.0634 115.039 59.4289C114.674 59.8466 114.204 60.0555 113.629 60.0555H113.577C113.003 60.0555 112.533 59.8466 112.115 59.4289C111.697 59.0634 111.489 58.5935 111.489 58.0191V48.8814C111.489 47.7849 111.123 46.8451 110.34 46.0618C109.557 45.2786 108.617 44.9131 107.52 44.9131C106.424 44.9131 105.484 45.2786 104.701 46.0618C103.917 46.8451 103.552 47.7849 103.552 48.8814V58.0191H103.656Z" fill="white" stroke="white" stroke-width="0.25" stroke-miterlimit="10"/>
<path d="M121.616 33.8955C122.139 33.8955 122.661 34.1044 123.026 34.4699C123.444 34.8876 123.653 35.3575 123.653 35.9319V40.7879H126.159C126.681 40.7879 127.204 40.9968 127.569 41.4145C127.935 41.8322 128.196 42.3022 128.196 42.8765V42.9288C128.196 43.5031 127.987 43.973 127.569 44.3385C127.151 44.7563 126.681 44.9651 126.159 44.9651H123.653V54.886C123.653 55.1993 123.757 55.4604 123.966 55.7215C124.175 55.9826 124.488 56.0348 124.802 56.0348H126.159C126.681 56.0348 127.204 56.2436 127.569 56.6614C127.935 57.0791 128.196 57.549 128.196 58.1234V58.1756C128.196 58.7499 127.987 59.2199 127.569 59.5854C127.151 60.0031 126.681 60.212 126.159 60.212H124.802C123.34 60.212 122.086 59.6898 121.094 58.6977C120.05 57.6534 119.58 56.4003 119.58 54.9905V35.9319C119.58 35.3575 119.789 34.8876 120.207 34.4699C120.52 34.1044 121.042 33.8955 121.616 33.8955Z" fill="white" stroke="white" stroke-width="0.25" stroke-miterlimit="10"/>
<path d="M133.627 38.5949C133 38.5949 132.426 38.386 131.956 37.9161C131.486 37.4462 131.277 36.924 131.277 36.2452C131.277 35.6186 131.486 35.0443 131.956 34.6265C132.426 34.2088 132.948 33.9478 133.627 33.9478C134.254 33.9478 134.828 34.1566 135.246 34.6265C135.716 35.0965 135.925 35.6186 135.925 36.2452C135.925 36.924 135.716 37.4462 135.246 37.9161C134.828 38.386 134.254 38.5949 133.627 38.5949ZM133.627 40.7879C134.201 40.7879 134.671 40.9968 135.037 41.4145C135.455 41.8322 135.663 42.3022 135.663 42.8765V58.0712C135.663 58.6455 135.455 59.1155 135.037 59.481C134.671 59.8987 134.201 60.1076 133.627 60.1076H133.575C133 60.1076 132.53 59.8987 132.113 59.481C131.695 59.1155 131.486 58.6455 131.486 58.0712V42.8765C131.486 42.3022 131.695 41.8322 132.113 41.4145C132.53 40.9968 133.053 40.7879 133.627 40.7879Z" fill="white" stroke="white" stroke-width="0.25" stroke-miterlimit="10"/>
<path d="M144.174 58.0191C144.174 58.5935 143.965 59.0634 143.547 59.4289C143.13 59.8466 142.66 60.0555 142.137 60.0555H142.085C141.563 60.0555 141.041 59.8466 140.675 59.4289C140.258 59.0634 140.049 58.5935 140.049 58.0191V48.8814C140.049 46.6362 140.832 44.7564 142.399 43.1378C143.965 41.5191 145.897 40.7881 148.142 40.7881C150.335 40.7881 152.267 41.5713 153.834 43.1378C155.4 44.7042 156.183 46.6362 156.183 48.8814V58.0191C156.183 58.5935 155.974 59.0634 155.557 59.4289C155.191 59.8466 154.721 60.0555 154.147 60.0555H154.095C153.52 60.0555 153.05 59.8466 152.633 59.4289C152.215 59.0634 152.006 58.5935 152.006 58.0191V48.8814C152.006 47.7849 151.641 46.8451 150.857 46.0618C150.074 45.2786 149.134 44.9131 148.038 44.9131C146.941 44.9131 146.001 45.2786 145.218 46.0618C144.435 46.8451 144.069 47.7849 144.069 48.8814V58.0191H144.174Z" fill="white" stroke="white" stroke-width="0.25" stroke-miterlimit="10"/>
<path d="M169.186 62.8224C170.596 62.8224 171.849 62.3003 172.945 61.2038C174.094 60.1073 174.721 58.8019 174.721 57.2876C173.467 59.1152 171.588 60.055 169.186 60.055C166.523 60.055 164.278 59.1151 162.398 57.2354C160.518 55.3556 159.578 53.0582 159.578 50.4474C159.578 47.7844 160.518 45.5392 162.398 43.6594C164.278 41.7797 166.575 40.8398 169.186 40.8398C171.849 40.8398 174.094 41.7797 175.974 43.6594C177.853 45.5392 178.793 47.7844 178.793 50.4474V57.3398C178.793 59.9506 177.801 62.1958 175.765 64.18C173.833 66.0598 171.588 66.9996 169.186 66.9996C165.426 66.9996 162.607 65.5376 160.727 62.6136C160.518 62.248 160.414 61.9348 160.414 61.5693C160.414 61.3604 160.466 61.0993 160.518 60.8905C160.727 60.2639 161.145 59.8462 161.771 59.6373H161.823C162.084 59.5329 162.346 59.4806 162.607 59.4806C163.233 59.4806 163.755 59.794 164.173 60.4205C165.27 61.987 166.94 62.8224 169.186 62.8224ZM174.721 50.2908C174.721 48.7765 174.146 47.5234 173.05 46.4268C172.005 45.3825 170.7 44.8604 169.186 44.8604C167.671 44.8604 166.314 45.3826 165.27 46.4791C164.225 47.5756 163.651 48.881 163.651 50.3952C163.651 51.9095 164.173 53.2671 165.27 54.3114C166.366 55.3557 167.671 55.93 169.186 55.93C170.7 55.93 172.005 55.4079 173.102 54.3114C174.198 53.2148 174.721 51.9095 174.721 50.3952V50.2908Z" fill="white" stroke="white" stroke-width="0.25" stroke-miterlimit="10"/>
</svg>
